# xmcd
#
# Track frame offsets:
#	150
#	9740
#	20550
#	33707
#	44357
#	53967
#	60612
#	75147
#	85900
#	98995
#	107302
#	118200
#	130887
#	147437
#	159125
#
# Disc length: 2202 seconds
# Revision: 5
# Processed by: cddbd v1.5.2PL0 Copyright (c) Steve Scherf et al.
# Submitted via: dBpowerAMP V12.0
#
DISCID=be08980f
DTITLE=Various Artist - The Johnny Cash Children's Album
DYEAR=1975
DGENRE=Country
TTITLE0=Johnny Cash - Nasty Dan
TTITLE1=Johnny Cash - One and One Makes Two
TTITLE2=Johnny Cash and June Carter Cash - I Got a Boy and His Name Is John
TTITLE3=Johnny Cash - Little Magic Glasses
TTITLE4=Johnny Cash - Miss Tara
TTITLE5=Johnny Cash - Dinosaur Song
TTITLE6=Johnny Cash - Tiger Whitehead
TTITLE7=Johnny Cash - There's a Bear in the Woods
TTITLE8=Johnny Cash - Call of the Wild
TTITLE9=Johnny Cash and June Carter Cash - Little Green Fountain
TTITLE10=Johnny Cash - Old Shep
TTITLE11=Johnny Cash - (The) Timber Man
TTITLE12=Johnny Cash - My Grandfather's Clock
TTITLE13=Johnny Cash - Ah Bos Cee Dah
TTITLE14=Johnny Cash - Why Is a Fire Engine Red
EXTD=
EXTT0=
EXTT1=
EXTT2=
EXTT3=
EXTT4=
EXTT5=
EXTT6=
EXTT7=
EXTT8=
EXTT9=
EXTT10=
EXTT11=
EXTT12=
EXTT13=
EXTT14=
PLAYORDER=
